<?xml version="1.0" encoding="UTF-8" standalone="no"?>
<!-- Created with Inkscape (http://www.inkscape.org/) -->

<svg
   width="175.54387mm"
   height="33.748238mm"
   viewBox="0 0 175.54387 33.748238"
   version="1.1"
   id="svg1"
   xml:space="preserve"
   inkscape:version="1.4 (e7c3feb1, 2024-10-09)"
   sodipodi:docname="lavender_logo_full.svg"
   xmlns:inkscape="http://www.inkscape.org/namespaces/inkscape"
   xmlns:sodipodi="http://sodipodi.sourceforge.net/DTD/sodipodi-0.dtd"
   xmlns="http://www.w3.org/2000/svg"
   xmlns:svg="http://www.w3.org/2000/svg"><sodipodi:namedview
     id="namedview1"
     pagecolor="#ffffff"
     bordercolor="#000000"
     borderopacity="0.25"
     inkscape:showpageshadow="2"
     inkscape:pageopacity="0.0"
     inkscape:pagecheckerboard="0"
     inkscape:deskcolor="#d1d1d1"
     inkscape:document-units="mm"
     inkscape:zoom="1.2711951"
     inkscape:cx="304.0446"
     inkscape:cy="232.45842"
     inkscape:window-width="1936"
     inkscape:window-height="1186"
     inkscape:window-x="1623"
     inkscape:window-y="253"
     inkscape:window-maximized="0"
     inkscape:current-layer="layer1" /><defs
     id="defs1" /><g
     inkscape:label="Layer 1"
     inkscape:groupmode="layer"
     id="layer1"
     transform="translate(-16.844655,-144.15427)"><path
       style="fill:#cb9deb;stroke:none"
       d="m 20.032498,155.57918 0.886908,0.29564 c 0.259621,-0.62359 0.60205,-1.71413 1.231133,-2.05269 0.761159,-0.40963 1.556526,-0.0238 2.13492,-0.91918 0.637295,-0.98655 -0.239534,-2.19545 1.068715,-2.81037 0.921207,-0.433 1.9807,0.69356 3.103379,0.016 0.965192,-0.58254 0.867857,-2.15478 1.783054,-2.50606 1.040824,-0.39951 1.462096,0.84219 2.209173,1.30298 1.452107,0.89567 3.322898,-0.0408 3.729666,-1.60409 0.524328,-2.01515 -1.695189,-3.83734 -3.582305,-2.88884 -1.266929,0.63678 -1.150715,2.04407 -2.660838,2.31171 -1.272448,0.22551 -2.154659,-1.23982 -3.547517,-0.55843 -1.47448,0.72132 -0.679471,2.04473 -1.525855,2.95887 -1.033263,1.11598 -2.301186,0.46777 -3.336171,1.3428 -0.993297,0.83978 -0.272023,1.72918 -0.485427,2.7466 -0.173002,0.82481 -0.781286,1.5398 -1.008835,2.36509 M 33.18887,145.14824 c 2.090764,-0.57881 3.151088,2.54588 1.034041,3.12379 -2.045945,0.5585 -3.111969,-2.54854 -1.034041,-3.12379 m -6.208242,1.77438 c 1.667305,-0.44036 2.423736,2.08605 0.737721,2.53138 -1.64774,0.43523 -2.420364,-2.08696 -0.737721,-2.53138 m 12.12039,0.37879 c -0.216615,1.39819 1.167471,1.09251 1.790241,2.04276 0.540836,0.82523 0.0373,1.7418 1.1684,2.32425 0.931152,0.47949 1.989985,-0.24605 2.555449,0.95512 0.411908,0.87498 -0.65901,1.89334 -0.125121,2.95556 0.585661,1.16522 2.597387,1.06543 2.649889,2.35938 0.02782,0.68566 -0.801187,1.02059 -1.180947,1.48993 -0.576228,0.71215 -0.667999,1.81503 -0.300199,2.64886 0.948314,2.14991 4.336336,1.85755 4.893279,-0.43752 0.587178,-2.41967 -1.871225,-2.31698 -2.408773,-3.99371 -0.452632,-1.41186 1.05711,-2.2298 0.54987,-3.69283 -0.610221,-1.76004 -2.1085,-1.00471 -3.148661,-1.96121 -1.085264,-0.99797 -0.461817,-2.3678 -1.449208,-3.32647 -0.818401,-0.7946 -1.555644,-0.1726 -2.481313,-0.3067 -0.852509,-0.1235 -1.690731,-0.77747 -2.512906,-1.05742 m 3.55402,1.84441 c 1.108008,-0.25077 1.583914,1.40355 0.434215,1.65337 -1.132701,0.24614 -1.575713,-1.39502 -0.434215,-1.65337 m -17.892364,5.54648 c 1.398806,-0.8047 2.688945,-2.05433 4.434539,-2.00147 0.895021,0.0271 1.635338,0.61499 2.512906,0.65138 0.930975,0.0386 1.864544,-0.25844 2.805804,-0.10619 0.942342,0.15243 0.905931,1.55808 2.056679,1.26079 0.871128,-0.22505 0.811735,-1.47795 0.0074,-1.75773 -0.511647,-0.17798 -0.965111,0.21163 -1.470082,0.21819 -1.023587,0.0133 -2.060743,-0.33373 -3.104178,-0.33442 l 1.182544,-2.5129 c -3.116703,0.002 -6.933316,1.70569 -8.425625,4.58235 m 10.199441,-4.58235 v 0.14782 c 1.560673,0.6489 3.129694,1.48301 3.857297,3.10417 0.291788,0.65013 0.134558,1.41097 0.449954,2.02725 0.441914,0.86349 1.383114,1.56651 1.588245,2.55511 0.15721,0.75766 -0.758914,1.37964 -0.251951,2.15887 0.544973,0.83766 1.824631,0.26132 1.707093,-0.67898 -0.07735,-0.61877 -0.669315,-0.84635 -0.949753,-1.34747 -0.49126,-0.87785 -0.707463,-1.90258 -1.227256,-2.79314 l 2.808542,-0.14782 c -1.161069,-2.99692 -5.03517,-4.65304 -7.982171,-5.02581 m -12.548447,0.97838 c 1.10943,-0.4223 1.716784,1.20948 0.568803,1.58665 -1.010674,0.33205 -1.562432,-1.20843 -0.568803,-1.58665 m 23.637647,2.36281 c 1.507429,-0.57769 2.502298,1.6449 1.025374,2.27441 -1.551173,0.66115 -2.525685,-1.69945 -1.025374,-2.27441 m -20.697369,4.7888 -1.330362,-2.36509 c -1.727436,2.97087 -1.743857,6.81872 -0.295636,9.9038 0.48916,-1.36383 -0.349322,-2.93083 0.289021,-4.43454 0.435357,-1.02554 1.338001,-1.41556 1.972731,-2.24453 0.6572,-0.85831 0.758515,-2.14146 1.637518,-2.86682 0.521369,-0.43024 1.273451,0.0208 1.755794,-0.56778 0.498845,-0.6087 -0.02753,-1.49643 -0.7765,-1.49643 -0.950486,0 -0.796213,0.98118 -1.135553,1.55848 -0.475478,0.8089 -1.379447,1.93548 -2.117013,2.51291 m 121.506387,7.53871 c 1.40279,0.33491 3.00034,0.42275 4.43454,0.25344 1.90566,-0.22497 3.61074,-0.57724 4.73474,-2.32289 2.24055,-3.47972 0.13754,-8.50398 -4.14347,-8.5739 -1.18496,-0.0194 -2.36011,-7e-5 -3.54763,4.6e-4 -0.33504,1.5e-4 -1.10028,-0.12294 -1.30436,0.23484 -0.14067,0.24663 0.85988,2.10819 0.86091,2.72152 0.003,1.84515 0.35672,4.11441 -0.0583,5.9126 -0.16085,0.69695 -0.7806,1.09923 -0.97645,1.77393 m -88.247307,-10.4951 c 0.282797,0.59758 0.881684,0.99216 1.086052,1.62816 0.551719,1.71696 0.105175,4.25739 0.09638,6.05837 -0.0031,0.63754 -0.982678,2.4835 -0.643285,2.8301 0.525664,0.53681 2.171704,0.27434 2.860667,0.27408 2.356964,-9.1e-4 6.052891,0.37057 5.025812,-3.10418 -0.943174,0.43984 -1.488357,1.38905 -2.512906,1.70824 -2.886998,0.8994 -2.660724,-1.75827 -2.660724,-3.77769 0,-1.18566 -0.180518,-2.54333 0.137213,-3.69545 0.133139,-0.48277 0.904555,-1.25458 0.774673,-1.73264 -0.110593,-0.40706 -0.745451,-0.33453 -1.059704,-0.3367 -1.00719,-0.007 -2.134402,-0.13894 -3.104177,0.14771 m 19.511974,10.34725 c -0.403969,-0.89464 -0.742392,-1.7198 -0.1347,-2.64099 0.567435,-0.86015 2.784904,-0.92606 3.430723,-0.13379 0.755641,0.92701 0.376876,1.89459 0.251608,2.9226 0.658699,0.12229 3.311871,0.57279 3.584361,-0.32723 0.147732,-0.48795 -0.883254,-1.43697 -1.103276,-1.89004 -0.86848,-1.78837 -1.404379,-3.74913 -2.069794,-5.61708 -0.325346,-0.91332 -0.751148,-2.86706 -2.037288,-2.77797 -1.110101,0.0769 -1.393946,1.63851 -1.675272,2.48233 -0.641995,1.92562 -1.265584,3.92062 -2.119065,5.76491 -0.260373,0.56263 -1.202054,1.2964 -1.200908,1.89973 0.0018,0.97256 2.578591,0.52642 3.073611,0.31753 m 13.89489,-10.19944 c 0.30301,0.74853 0.99733,1.18878 1.33538,1.92164 0.91746,1.98901 1.52459,4.15897 2.29746,6.20835 0.27755,0.73599 0.58123,2.30916 1.54295,2.42691 0.91685,0.11225 1.24687,-1.20166 1.51742,-1.83564 0.88839,-2.08165 1.525892,-4.26527 2.390642,-6.35617 0.24822,-0.60019 1.36395,-1.56924 1.27504,-2.18351 -0.10577,-0.73068 -2.782962,-0.81147 -2.710452,0.12273 0.11054,1.42416 -0.084,2.45607 -0.55363,3.8346 -0.40735,1.19578 -0.8733,2.37038 -1.32991,3.54763 -1.03909,-1.52506 -1.6566,-3.82626 -2.08439,-5.61708 -0.13077,-0.54742 0.21855,-1.73315 -0.10152,-2.12808 -0.5345,-0.65952 -2.93092,-0.25325 -3.57899,0.0586 m 18.625072,0.14782 v 0.14782 c 1.50394,1.5412 1.03472,3.74204 1.03472,5.7649 0,0.79162 0.14268,1.74957 -0.0965,2.51279 -0.19281,0.61527 -0.7181,1.02463 -0.93823,1.62611 0.64489,0.31036 1.22573,0.25446 1.92163,0.32073 1.85537,0.17669 7.30776,0.92312 6.35617,-2.39018 -1.21659,0.46113 -2.13592,1.40084 -3.54763,1.25155 -1.27669,-0.13501 -2.29355,-2.20047 -1.38899,-3.27401 1.05044,-1.24665 2.74688,1.49989 3.09723,-0.49056 0.0429,-0.24385 0.0613,-0.49152 0.0612,-0.73897 -0.001,-3.02138 -2.05663,0.2963 -3.15791,-1.20445 -0.62065,-0.84578 0.0737,-2.61 1.0929,-2.76462 1.30907,-0.1986 2.24336,0.64436 3.3997,1.01271 0.19305,-0.65928 0.21088,-1.61915 -0.47665,-2.02246 -0.56242,-0.32992 -1.41202,-0.19481 -2.03626,-0.19481 -1.61656,0 -3.90403,-0.42484 -5.32144,0.44345 m 16.85125,-0.14782 c 0.92893,2.19796 1.43434,4.16008 1.14033,6.65181 -0.0847,0.71827 0.0546,1.71087 -0.27977,2.35927 -0.17301,0.33553 -0.91575,0.82398 -0.68674,1.25497 0.30127,0.56701 2.7683,0.42769 2.86215,-0.24818 0.094,-0.67662 -0.53855,-1.74617 -0.62857,-2.47915 -0.19518,-1.58921 -0.0423,-3.27742 -0.0423,-4.87799 1.81295,1.33822 3.08355,3.95614 4.41744,5.7649 0.4969,0.6738 1.26131,1.9277 2.2257,1.94 0.95794,0.0122 0.59895,-2.3596 0.59995,-2.97473 0.003,-1.65106 -0.11353,-3.70485 0.19811,-5.32144 0.10184,-0.52829 0.97373,-1.47362 0.66872,-1.98243 -0.41828,-0.69776 -2.30525,-0.38508 -2.93629,-0.23484 0.82475,2.50824 0.88691,4.57706 0.88691,7.24308 -2.03266,-2.12532 -4.63902,-8.91753 -8.42562,-7.09527 m 38.13704,10.34726 c 1.80894,0.33584 3.77865,0.37032 5.61708,0.28982 0.6528,-0.0286 1.652,-0.053 2.15899,-0.5136 0.56005,-0.50885 0.50128,-1.30582 0.50173,-1.99349 -1.26239,0.40227 -2.1229,1.31957 -3.54763,1.24186 -1.3542,-0.0739 -2.37914,-2.11404 -1.49974,-3.26591 0.91177,-1.19426 2.96213,1.39518 3.11708,-0.34183 0.0261,-0.29227 0.009,-0.59295 0.009,-0.88611 -4e-4,-0.24451 0.0116,-0.495 -0.0161,-0.73841 -0.21373,-1.87564 -2.03471,0.74839 -2.99889,-0.36042 -0.69233,-0.7962 -0.0674,-2.6695 0.94781,-2.8585 1.38561,-0.25794 2.31413,0.68432 3.54536,1.00097 0.42637,-2.98796 -3.0324,-2.21727 -5.02581,-2.21727 -0.6436,0 -2.07855,-0.25493 -2.56286,0.27465 -0.3137,0.34301 0.75543,2.05334 0.78322,2.68171 0.0776,1.75415 0.27798,3.90224 -0.11588,5.61708 -0.17768,0.7736 -0.79228,1.28362 -0.91302,2.06945 m 16.99906,-10.49507 c 0.28108,0.61466 0.79269,1.10205 0.95591,1.77381 0.44376,1.82626 0.10143,4.18277 0.0782,6.06054 -0.008,0.64382 -1.10529,2.23323 -0.87355,2.5737 0.42194,0.61991 3.2093,0.30684 3.83049,0.087 -0.18004,-0.5689 -0.52442,-1.05789 -0.70601,-1.626 -0.22548,-0.70539 -0.48408,-3.58777 0.99937,-2.58191 2.00404,1.35885 1.98972,5.73568 5.47154,4.06009 -0.75432,-1.54366 -2.57111,-2.42482 -3.03027,-4.28672 -0.16967,-0.688 0.51298,-1.12707 0.86648,-1.62599 0.44048,-0.6217 0.59274,-1.31598 0.52238,-2.06946 -0.30068,-3.22022 -5.84335,-2.90582 -8.11458,-2.36508 m -32.32515,0.9761 c 1.42781,-0.70258 3.20996,0.46617 3.84464,1.68462 1.05849,2.03203 0.78035,5.70419 -1.52654,6.77168 -3.64012,1.68444 -2.66072,-3.6624 -2.66072,-5.73695 0,-0.60702 -0.30671,-2.39984 0.34262,-2.71935 m 35.42933,3.90189 c -0.11054,-0.59538 -0.1542,-1.16785 -0.14724,-1.77382 0.006,-0.54353 -0.0149,-1.38101 0.23586,-1.87464 0.30839,-0.60715 1.66687,-0.38511 2.12216,-0.0851 1.39907,0.92196 0.93472,3.1375 -0.58478,3.6147 -0.51956,0.16318 -1.08862,0.11879 -1.626,0.11885 M 43.683376,156.31827 c 0.03684,1.78488 0.450072,3.44753 -0.685483,5.0257 -0.463952,0.64479 -1.24093,0.98927 -1.668541,1.64151 -0.518072,0.79022 -0.66999,1.74367 -1.306068,2.48291 -0.59164,0.68759 -1.75392,0.0906 -2.114616,1.06472 -0.345319,0.93262 0.831534,1.7405 1.571705,1.06849 0.39427,-0.35797 0.325751,-0.94679 0.596062,-1.37952 0.551052,-0.88217 1.316491,-1.50705 1.685307,-2.51291 h 0.295636 l 1.47818,2.36509 c 1.364522,-2.56218 2.022201,-7.25028 0.147818,-9.75599 m -6.208355,5.91272 -2.21727,1.28337 -2.21727,-0.54428 c 0.230801,-1.56283 0.74099,-4.12385 1.822404,-5.31266 0.643813,-0.70775 1.897845,-0.30409 1.418984,0.7238 -0.326751,0.70139 -1.215953,0.72805 -1.467572,1.48468 0.442175,-0.0853 0.788116,-0.24601 1.182544,-0.46626 0.459161,-0.2564 1.216368,-0.54304 1.460271,-1.04294 0.379101,-0.777 -0.592571,-1.76042 -1.312453,-1.85046 -0.972589,-0.12165 -2.318068,0.85296 -2.860438,1.59178 -0.861614,1.1737 -0.661939,2.85286 -1.340398,4.11905 -0.289113,0.53957 -2.334802,1.18697 -1.981515,1.87146 0.366424,0.70993 1.801201,-0.28822 2.339083,-0.29233 0.692829,-0.005 1.253221,0.51634 1.921634,0.61841 1.290861,0.19714 2.911725,-0.97215 3.251996,-2.18362 m 42.423762,-4.58236 1.182543,3.69545 h -2.512905 c 0.09934,-1.13781 0.568861,-2.83239 1.330362,-3.69545 m -61.196647,0.83342 c -1.753034,0.50676 -2.454385,2.77791 -1.272078,4.17848 0.620319,0.73483 1.64614,0.76686 1.890952,1.78842 0.325817,1.35957 -1.148146,2.28357 -0.596974,3.69476 0.650962,1.66669 2.179118,0.97377 3.204776,1.94353 1.055403,0.99789 0.363367,2.5722 1.519012,3.42183 0.904491,0.66498 1.732927,0.005 2.645212,0.2986 0.600015,0.19326 1.480771,1.00328 2.153055,0.73704 0.354929,-0.14056 0.332973,-0.5865 0.120559,-0.83764 -0.414475,-0.49004 -1.184505,-0.53165 -1.59315,-1.03872 -0.50315,-0.62432 -0.18881,-1.48758 -0.859876,-2.10127 -0.884626,-0.80899 -2.304741,5.5e-4 -2.932408,-1.09597 -0.61065,-1.06681 0.736233,-2.25771 -0.236098,-3.53075 -0.627915,-0.82212 -2.380436,-0.72164 -2.40478,-1.92974 -0.01158,-0.57468 0.632833,-0.84837 0.97382,-1.21562 0.545826,-0.58786 0.839574,-1.39366 0.686623,-2.19001 -0.292937,-1.5252 -1.752349,-2.56994 -3.298645,-2.12294 m 0.29575,1.00461 c 1.936778,-0.52295 2.850505,2.44157 0.886224,2.97575 -1.949011,0.53004 -2.868812,-2.44042 -0.886224,-2.97575 m 28.529328,0 c 2.068868,-0.56365 2.909928,2.48937 0.886225,3.06666 -1.876005,0.53515 -2.738896,-2.5619 -0.886225,-3.06666 m -20.251634,7.17887 h -2.808542 c 0.842834,3.24249 5.668819,5.31303 8.721261,5.32145 -1.046752,-0.69511 -2.279191,-0.93946 -3.251425,-1.80119 -1.274202,-1.12937 -1.111524,-2.12239 -1.676982,-3.52026 -0.36858,-0.91117 -1.244587,-1.56273 -1.596571,-2.51233 -0.307931,-0.83076 0.854184,-1.51764 0.20633,-2.31867 -0.612167,-0.75691 -1.939535,-0.11684 -1.739143,0.83364 0.112678,0.53445 0.678036,0.761 0.941998,1.20422 0.497874,0.83597 0.737583,1.90845 1.203074,2.79314 m -6.503878,-0.5339 c 1.549413,-0.22232 1.884466,2.22379 0.295408,2.41527 -1.584919,0.19098 -1.921639,-2.18193 -0.295408,-2.41527 m 25.720216,-0.0574 c -0.238937,0.60638 -0.5328,1.57065 -1.092325,1.95528 -0.799083,0.5493 -1.695823,0.13225 -2.345585,1.15118 -0.552528,0.86645 0.212223,2.12896 -0.997313,2.62993 -0.95341,0.39488 -1.983059,-0.64965 -3.101214,-0.0352 -1.412192,0.77596 -0.921307,2.26767 -2.663004,2.72448 -1.697182,-3.85816 -7.03189,-0.60615 -4.671893,2.36281 0.96469,1.21361 2.90545,1.44465 4.009791,0.26644 0.584153,-0.62323 0.644495,-1.44622 1.549693,-1.71645 1.348122,-0.40245 2.25812,1.06072 3.694766,0.57724 1.782207,-0.59976 1.011183,-2.16535 1.956764,-3.22108 0.952498,-1.06346 2.199862,-0.37386 3.166568,-1.19635 1.017324,-0.86555 0.282484,-1.8074 0.497288,-2.83751 0.17149,-0.82239 0.795384,-1.54654 1.03119,-2.36509 l -1.034726,-0.29563 m -3.69545,0.88691 c -1.364592,1.25313 -3.084043,2.43236 -5.025811,2.18989 -0.687497,-0.0858 -1.246698,-0.58105 -1.921634,-0.64602 -1.218351,-0.11727 -2.431504,0.24186 -3.69545,0.0821 -0.06424,-0.84909 -1.323583,-1.85509 -1.832327,-0.70533 -0.245097,0.55392 0.05346,1.26238 0.652634,1.39458 0.467379,0.10313 0.872573,-0.18265 1.327511,-0.20234 1.038284,-0.0449 2.17903,0.25218 3.251996,0.25218 l -1.47818,2.66073 c 2.637011,-0.0218 5.293589,-1.0703 7.20088,-2.8958 0.567641,-0.54329 1.492437,-1.30043 1.520381,-2.13001 m 1.921634,2.33965 c 1.065498,-0.0498 1.039862,1.56616 0,1.59577 -1.043739,0.0297 -0.992275,-1.54941 0,-1.59577 m 22.911788,1.50361 c 0.399051,1.09493 0.291883,2.00095 0,3.10418 0.733613,0 1.699667,0.15653 2.331895,-0.297 0.860631,-0.61738 0.760815,-2.12283 -0.130139,-2.66107 -0.644011,-0.38906 -1.508192,-0.31115 -2.201756,-0.14611 m 8.869079,3.10418 h 1.034726 c -0.102577,-0.81595 -0.338793,-2.51712 0.591272,-2.80854 -0.421107,-0.64652 -1.048359,-0.31827 -1.351803,0.29849 -0.350901,0.71321 -0.06081,1.70152 -0.274195,2.51005 m 3.843268,0 h 1.034725 l -0.147818,-2.80854 h 0.73909 c -0.37997,-0.5839 -1.024558,-0.43469 -1.353517,0.1639 -0.389425,0.70862 -0.170693,1.83922 -0.27248,2.64464 m 28.824513,-3.10418 v 3.10418 h 1.18254 c -0.33717,-1.08057 -0.39228,-2.02784 0,-3.10418 h -1.18254 m 49.3712,0.73909 0.88691,-0.29563 -0.14782,2.66072 h 1.18255 l -0.29564,-2.66072 0.88691,0.29563 c 0.29877,-1.28257 -2.40927,-1.29968 -2.51291,0 m 14.48617,-0.73909 v 0.44346 l 0.44345,0.14782 v -0.73909 l -0.44345,0.14781 m -99.777147,0 0.147818,0.59128 0.443454,-0.59128 h -0.591272 m 19.807605,0 v 0.44346 h 0.59128 v -0.44346 h -0.59128 m 49.519032,0 v 0.44346 h 0.59127 v -0.44346 h -0.59127 m -118.238422,0.39133 c 0.967088,-0.33544 1.513591,1.09251 0.56675,1.51069 -0.971583,0.42911 -1.574895,-1.161 -0.56675,-1.51069 m 44.524124,0.0154 c 1.112966,-0.31955 1.327606,1.98346 0.250923,2.27019 -0.84173,0.22416 -0.83504,-2.10248 -0.250923,-2.27019 m 53.167598,0.0367 c -0.36779,0.91242 -0.37074,2.88711 1.03473,2.5129 v -0.29563 c -0.51368,-0.50351 -0.48544,-0.96343 0,-1.47818 v -0.29564 l -1.03473,-0.44345 m 16.85125,0 c -0.40423,1.00975 -0.22734,2.61928 1.03473,2.66072 -0.27346,-0.96241 -0.38244,-1.23879 0,-2.21727 l -1.03473,-0.44345 m -65.779005,0.59127 v 2.06945 h 1.034726 c -0.226017,-0.71299 -0.06907,-2.217 -1.034726,-2.06945 m 10.938531,-0.14782 c 0.206335,1.63267 0.442944,2.63761 2.365088,2.06945 l -0.295636,-2.06942 c -0.769666,0.25545 -0.600429,1.24555 -0.886908,1.92164 -0.502986,-0.69927 -0.23462,-1.71478 -1.182544,-1.92164 m 5.764902,1.92164 -1.034726,-0.29564 c 0.269932,0.83252 1.854356,0.83703 1.630328,-0.13527 -0.103989,-0.45132 -0.709317,-0.77086 -1.039056,-1.04727 l 1.034726,0.14781 c -0.214532,-0.64638 -1.531555,-0.85816 -1.532015,0.0138 -2.75e-4,0.5215 0.702099,0.89076 0.940743,1.31656 m 3.10418,-1.77382 v 2.06945 h 1.03472 l -0.29563,-2.21727 -0.73909,0.14782 m 4.00716,0.004 c -1.19477,0.66579 -0.28007,2.67926 1.00257,1.99554 1.23472,-0.65817 0.29925,-2.72099 -1.00257,-1.99554 m 3.975012,1.91741 h 1.03472 v -1.62599 c 0.60259,0.50191 0.5907,1.02812 0.59128,1.77381 h 0.73909 c -0.0888,-1.12508 -0.0183,-2.03487 -1.3298,-2.08793 -0.23147,-0.009 -0.55959,-0.0633 -0.72973,0.14143 -0.26688,0.32119 -0.13959,1.33983 -0.30556,1.79868 m 12.26889,-2.06945 -0.29563,2.21727 h 0.8869 l 0.14782,-1.77381 h 0.29564 l 0.29563,1.77381 c 0.81197,-0.13591 0.89047,-1.26483 0.33373,-1.83244 -0.35279,-0.35967 -1.18997,-0.2968 -1.66409,-0.38483 m 5.61708,1.626 v 0.14782 l -1.18254,-0.14782 c 0.26742,0.80824 1.89532,0.83348 1.66273,-0.14257 -0.11036,-0.46312 -0.72713,-0.76537 -1.07146,-1.03997 l 1.03473,0.14781 c -0.41797,-1.25933 -2.42039,0.15479 -0.44346,1.03473 m 6.79963,-1.47818 v 2.06945 h 1.03473 c -0.19722,-0.77185 -0.29638,-1.36223 0.59127,-1.626 v -0.44345 h -1.626 m 3.99109,0 c 0.29133,1.56921 0.48516,2.47732 2.36509,1.92163 l -0.29564,-2.06945 c -0.74172,0.24621 -0.32934,1.45586 -0.90834,1.53852 -0.71941,0.1027 -0.0612,-1.55877 -1.16111,-1.3907 m 6.50399,1.626 c -1.26945,-0.096 -1.40125,-1.31463 0,-1.18255 -0.32447,-0.92277 -1.52293,-0.56298 -1.72614,0.29633 -0.25911,1.09563 1.09939,1.90694 1.72614,0.88622 m 6.35617,-1.626 v 2.06945 h 1.03473 l -0.29564,-2.21727 -0.73909,0.14782 m 4.00717,0.004 c -1.21128,0.67471 -0.28622,2.68375 1.00257,2.01607 1.24685,-0.64595 0.32598,-2.7561 -1.00257,-2.01607 m 4.27064,-0.15204 -0.29564,2.21727 h 0.88691 l 0.14782,-1.77381 c 0.60258,0.5019 0.59069,1.02813 0.59127,1.77381 0.79188,-0.13255 0.91481,-1.27298 0.35426,-1.83244 -0.35995,-0.35927 -1.20485,-0.29576 -1.68462,-0.38483 m 12.56453,0.14782 c 0.29102,1.56661 0.50344,2.47192 2.36509,1.92163 -0.0487,-0.24601 -0.1088,-0.49365 -0.13995,-0.74274 -0.0244,-0.19497 -0.015,-0.39007 -0.0331,-0.58477 -0.16598,-1.78522 -0.82715,0.96952 -1.08879,0.91805 -0.82388,-0.16208 0.11905,-1.69894 -1.10327,-1.51217 m 5.02581,-0.14782 -0.29564,2.21727 h 0.88691 l 0.14782,-1.77381 c 0.60259,0.50191 0.59069,1.02812 0.59127,1.77381 0.79075,-0.13235 0.91618,-1.27359 0.35439,-1.83198 -0.34002,-0.33796 -1.22213,-0.28477 -1.68475,-0.38529 m 4.58236,0.14782 v 2.06945 h 1.03472 c -0.16413,-0.71808 -0.0914,-2.21359 -1.03472,-2.06945 m 3.69545,-0.14782 -0.29564,2.21727 h 0.88691 l 0.14782,-1.77381 h 0.29563 l 0.29564,1.77381 c 0.79075,-0.13235 0.91617,-1.27359 0.35439,-1.83198 -0.34001,-0.33796 -1.22214,-0.28477 -1.68475,-0.38529 m 5.32144,1.92164 1.18255,-1.77382 c -1.47436,-0.43157 -1.78232,0.37605 -1.89848,1.626 -0.0393,0.4233 -0.25522,1.03051 0.17382,1.32625 1.1849,0.81677 2.52762,-1.11377 0.54211,-1.17843 m -84.421752,-1.45218 c 0.61479,0.0945 0.55565,1.42274 -0.10504,1.31599 -0.60828,-0.0983 -0.55386,-1.41724 0.10504,-1.31599 m 49.511622,0 c 0.59073,0.0942 0.53188,1.42513 -0.0976,1.31599 -0.57281,-0.0993 -0.55396,-1.41985 0.0976,-1.31599 m 34.91013,0.8609 -0.14781,-0.8869 c 0.5637,0.18916 0.54201,0.48953 0.14781,0.8869 M 39.698791,172.64292 c 1.573595,-0.43502 2.295814,1.80448 0.731906,2.33258 -1.426682,0.48176 -2.151769,-1.94006 -0.731906,-2.33258 m -6.067038,1.04613 c 2.018856,-0.10923 2.134364,3.05558 0.147818,3.15334 -1.994028,0.0981 -2.121242,-3.04656 -0.147818,-3.15334 m 149.000527,0.5152 v 0.29563 h -1.18254 c 0.38699,-0.39428 0.65122,-0.4364 1.18254,-0.29563 z"
       id="path2" /></g></svg>
